<svg width="16" height="26" viewBox="0 0 16 26" fill="none" xmlns="http://www.w3.org/2000/svg">
<path fill-rule="evenodd" clip-rule="evenodd" d="M10.2572 0V5.32614V12.239V13.5319C10.4177 13.9736 11.0965 15.8486 11.2702 16.3208V16.3208C11.5948 17.2212 13.4425 22.304 13.5902 22.7107V22.7107C13.7226 23.0755 14.0914 24.0897 14.2086 24.4142V24.4142C14.2772 24.602 14.456 25.0934 14.5511 25.3555V25.3555C14.6254 25.5604 14.6188 25.5436 14.6648 25.6704V25.6704C14.7308 25.6962 15.3646 25.9464 15.4556 25.9825V25.9825C15.4581 25.9834 15.4634 25.9856 15.4699 25.9882V25.9882C15.4803 25.9922 15.4762 25.9904 15.4813 25.9925V25.9925C15.4922 25.9967 15.4958 25.9982 15.4997 25.9998V25.9998C15.4998 25.8056 15.4999 25.5183 15.5 25.2109V25.2109V0H10.2572Z" fill="url(#paint0_linear_2_94)"/>
<path fill-rule="evenodd" clip-rule="evenodd" d="M0.5 1.80666V3.61582V10.4022V25.9998C2.5826 25.7561 3.62418 25.6614 5.74272 25.5675V20.6735V13.7608V12.4679C5.58227 12.0262 1.54387 0.906351 1.44881 0.644218C1.37444 0.439319 1.38114 0.456197 1.33508 0.329437C1.26912 0.303529 0.63527 0.0533434 0.544353 0.0172255C0.519609 0.00757087 0.523674 0.00930731 0.518682 0.00729304C0.507701 0.00305613 0.504136 0.00152807 0.500214 0C0.500143 0.194064 0.500071 0.481479 0.5 0.788829V1.80666Z" fill="url(#paint1_linear_2_94)"/>
<path fill-rule="evenodd" clip-rule="evenodd" d="M5.8558 0H0.5L9.98386 25.5676C12.649 25.6317 15.5 26 15.5 26L5.8558 0Z" fill="#E50914"/>
<defs>
<linearGradient id="paint0_linear_2_94" x1="12.1999" y1="20.3958" x2="14.4539" y2="19.7552" gradientUnits="userSpaceOnUse">
<stop offset="0.354167" stop-color="#7C020D"/>
<stop offset="1" stop-color="#B20710"/>
</linearGradient>
<linearGradient id="paint1_linear_2_94" x1="4.4" y1="6.7986" x2="1.79079" y2="7.552" gradientUnits="userSpaceOnUse">
<stop offset="0.489583" stop-color="#7C020D"/>
<stop offset="1" stop-color="#B20710"/>
</linearGradient>
</defs>
</svg>
